<?xml version="1.0" encoding="UTF-8"?>
<svg version="1.1" xmlns="http://www.w3.org/2000/svg" width="900" height="969">
<path d="M0 0 C1.29818785 0.46273988 2.59668355 0.92461688 3.89546204 1.38569641 C7.38079238 2.62574357 10.86172168 3.87773002 14.34193802 5.13204575 C18.00985503 6.45163434 21.68178231 7.75997091 25.35327148 9.06958008 C32.05878763 11.46326948 38.7608639 13.86641964 45.46127033 16.27437115 C52.26486811 18.71924987 59.07168166 21.1550803 65.87890625 23.58984375 C74.51240946 26.67935942 83.1436845 29.77502561 91.7734375 32.875 C105.24522793 37.71388229 118.7228662 42.53632571 132.203125 47.3515625 C133.92882721 47.96804657 133.92882721 47.96804657 135.68939209 48.59698486 C155.09212968 55.52684841 174.50829316 62.41850777 193.9277153 69.30142593 C213.46218766 76.22522226 232.98160794 83.18976371 252.48666382 90.19607544 C269.90526816 96.45182466 287.34170174 102.65615052 304.78668976 108.83781815 C331.50032668 118.30391217 358.19260089 127.82818005 384.86230469 137.41748047 C389.67685597 139.14839852 394.49276446 140.87550137 399.30917358 142.60124207 C402.75232966 143.83550325 406.19463048 145.07213447 409.63665771 146.30953979 C411.20553515 146.87307902 412.77474218 147.43570162 414.34429932 147.99734497 C416.44923911 148.75080957 418.55290592 149.50771955 420.65625 150.265625 C422.40470215 150.89331787 422.40470215 150.89331787 424.18847656 151.53369141 C426.765625 152.5390625 426.765625 152.5390625 427.765625 153.5390625 C427.74230422 155.91653367 427.64518481 158.24778176 427.49140072 160.61826611 C427.44409579 161.37328016 427.39679085 162.12829422 427.34805244 162.90618749 C426.63510752 173.39644895 425.36682722 183.83029542 424.1532135 194.27180481 C423.88114139 196.6429662 423.60947977 199.01417472 423.33819002 201.38542575 C422.67357797 207.18504225 422.00460675 212.98414394 421.33371864 218.78303752 C420.52939365 225.73745159 419.73059328 232.69249753 418.93190099 239.64756036 C417.27678678 254.05859149 415.61528381 268.46888159 413.95174367 282.87894217 C412.66786208 294.00056484 411.38565231 305.12237912 410.10461235 316.24432945 C409.92030915 317.84437844 409.7360052 319.44442733 409.55170051 321.04447615 C409.27395805 323.45571725 408.99621577 325.86695838 408.71847665 328.27819987 C406.13869057 350.6746622 403.55694275 373.07089769 400.9711237 395.46666431 C400.87377137 396.30983724 400.77641905 397.15301016 400.67611665 398.02173378 C400.18272555 402.29496573 399.68931622 406.56819556 399.19590015 410.84142462 C399.09791087 411.69006154 398.99992158 412.53869847 398.89896293 413.41305166 C398.70080552 415.1291929 398.50264715 416.84533403 398.30448781 418.56147505 C395.21681433 445.30240668 392.13574538 472.04409214 389.05981445 498.78637695 C385.60215403 528.84734439 382.13944024 558.90772356 378.6693067 588.96725386 C378.29967332 592.16930094 377.93005769 595.37135006 377.56045341 598.5734005 C377.46944683 599.36180237 377.37844024 600.15020425 377.28467588 600.96249709 C375.90960448 612.87584411 374.53851961 624.78964566 373.16945076 636.70368385 C371.61413763 650.23843735 370.05357242 663.77257315 368.48590834 677.30590192 C367.60834567 684.8831109 366.73501064 692.46077941 365.86767012 700.03916544 C365.22078374 705.68720351 364.56602393 711.3343059 363.90811031 716.98106905 C363.64232729 719.27304259 363.379141 721.56531895 363.11873103 723.85790918 C362.76600715 726.95986885 362.4040636 730.06061395 362.03967381 733.1612215 C361.88915342 734.5146987 361.88915342 734.5146987 361.73559222 735.89551887 C361.63674832 736.72006685 361.53790442 737.54461484 361.43606526 738.39414912 C361.35424319 739.10348896 361.27242112 739.8128288 361.18811959 740.54366379 C360.47963818 743.88974897 359.52458969 746.00942914 356.70043945 747.98022461 C355.8518335 748.42116455 355.00322754 748.86210449 354.12890625 749.31640625 C353.17113281 749.82300781 352.21335937 750.32960938 351.2265625 750.8515625 C350.18757812 751.3878125 349.14859375 751.9240625 348.078125 752.4765625 C345.87527476 753.639984 343.67347632 754.80539888 341.47265625 755.97265625 C340.35068848 756.56546387 339.2287207 757.15827148 338.07275391 757.76904297 C333.08647738 760.43776472 328.17577536 763.23344517 323.265625 766.0390625 C314.48922104 771.03578688 305.63897383 775.87824347 296.74609375 780.6640625 C289.87111562 784.37351893 283.05498079 788.1753525 276.265625 792.0390625 C267.48824899 797.0341219 258.63901721 801.87822012 249.74609375 806.6640625 C242.87111562 810.37351893 236.05498079 814.1753525 229.265625 818.0390625 C221.48216982 822.46849801 213.65163101 826.79490877 205.765625 831.0390625 C197.98748217 835.22671485 190.25802849 839.48630589 182.578125 843.8515625 C173.96567405 848.74631784 165.31759491 853.57244397 156.640625 858.3515625 C156.03298309 858.68627563 155.42534119 859.02098877 154.79928589 859.36584473 C151.69865149 861.07345384 148.59751362 862.78014608 145.49609375 864.48632812 C139.37526265 867.85382483 133.25778202 871.22739761 127.140625 874.6015625 C126.53982117 874.93290192 125.93901733 875.26424133 125.32000732 875.60562134 C115.511903 881.01530358 105.71801545 886.45025672 95.92919922 891.89477539 C87.7174561 896.4601121 79.49404099 901.00388235 71.265625 905.5390625 C57.4145187 913.17381593 43.58724412 920.85104944 29.765625 928.5390625 C28.02138696 929.50922606 26.2771486 930.47938905 24.53285217 931.44944763 C22.78330346 932.42246673 21.03386346 933.39568128 19.28442383 934.36889648 C17.00554046 935.6349428 14.72545514 936.89882835 12.4440918 938.16040039 C7.21622289 941.05243758 2.00589898 943.96642904 -3.1640625 946.9609375 C-4.07808838 947.48333008 -4.99211426 948.00572266 -5.93383789 948.54394531 C-7.62048328 949.50900337 -9.30000261 950.48667537 -10.97045898 951.47949219 C-12.08529663 952.11226074 -12.08529663 952.11226074 -13.22265625 952.7578125 C-13.85727783 953.12841797 -14.49189941 953.49902344 -15.14575195 953.88085938 C-19.15859336 955.14545557 -22.44226078 953.90436787 -26.14916992 952.19482422 C-27.66667847 951.34041748 -27.66667847 951.34041748 -29.21484375 950.46875 C-30.3646875 949.82744141 -31.51453125 949.18613281 -32.69921875 948.52539062 C-33.9401666 947.82172467 -35.1810503 947.11794559 -36.421875 946.4140625 C-37.72086057 945.68596763 -39.02034829 944.958768 -40.3203125 944.23242188 C-42.99385231 942.73711272 -45.66473609 941.23722127 -48.33349609 939.73339844 C-54.11894914 936.4752383 -59.92793723 933.25964253 -65.734375 930.0390625 C-67.96357831 928.79954507 -70.1927447 927.55996122 -72.421875 926.3203125 C-79.51775196 922.37815864 -86.62523814 918.4572309 -93.734375 914.5390625 C-104.19177101 908.77551633 -114.63530309 902.98760953 -125.0703125 897.18359375 C-133.28224233 892.61822017 -141.50574673 888.07423349 -149.734375 883.5390625 C-160.19177101 877.77551633 -170.63530309 871.98760953 -181.0703125 866.18359375 C-189.28224291 861.61821985 -197.50579976 857.07433042 -205.734375 852.5390625 C-220.69918701 844.29043258 -235.63546261 835.99083012 -250.56835938 827.68457031 C-263.88850465 820.27626248 -277.21837953 812.88622751 -290.5668335 805.52908325 C-300.41317104 800.1017988 -310.24483873 794.64858209 -320.0703125 789.18359375 C-327.67401347 784.95636139 -335.28702882 780.74639443 -342.90603638 776.54684448 C-352.630991 771.18644027 -362.35395055 765.82243782 -372.06494141 760.43676758 C-373.72770456 759.51491143 -375.39118075 758.59434175 -377.0546875 757.67382812 C-379.10639911 756.53498695 -381.15112734 755.3834558 -383.18798828 754.21826172 C-385.28716552 753.06117396 -387.43116498 751.98305707 -389.60498047 750.97314453 C-391.22944092 750.17239502 -391.22944092 750.17239502 -392.88671875 749.35546875 C-393.86503662 748.9076001 -394.84335449 748.45973145 -395.85131836 747.99829102 C-402.37939847 741.26154776 -401.25042012 725.46764179 -402.31010437 716.19076538 C-402.51124606 714.44986708 -402.71265504 712.70899965 -402.91430598 710.96816027 C-403.46503271 706.20706792 -404.01199101 701.44554922 -404.55831301 696.68394971 C-405.1500906 691.532087 -405.74540013 686.38063226 -406.340271 681.22912598 C-407.37294969 672.28204135 -408.40340113 663.33470246 -409.43234825 654.38718796 C-410.93629888 641.30920682 -412.44368867 628.23162381 -413.95186243 615.1541291 C-416.4205588 593.74706888 -418.88654829 572.33969773 -421.35083008 550.93212891 C-423.70691601 530.46452691 -426.06414522 509.99705721 -428.4230957 489.52978516 C-428.63827356 487.66279369 -428.63827356 487.66279369 -428.85779844 485.75808522 C-429.86674092 477.00408269 -430.87574832 468.25008765 -431.88476562 459.49609375 C-433.02626991 449.5926374 -434.16773334 439.68917634 -435.30911255 429.78570557 C-435.44918484 428.57033868 -435.58925714 427.35497179 -435.73357405 426.1027756 C-437.6917329 409.11191885 -439.64850054 392.12090235 -441.60415633 375.12975731 C-442.81846942 364.57965117 -444.03297907 354.02956766 -445.24755859 343.47949219 C-445.3779692 342.34668404 -445.5083798 341.2138759 -445.64274225 340.04674023 C-448.96458693 311.19263269 -452.29682542 282.33977025 -455.65039241 253.48933196 C-456.21246543 248.6534183 -456.77382392 243.81742191 -457.33497715 238.98140144 C-457.51374166 237.44094239 -457.6925063 235.90048335 -457.87127107 234.36002433 C-458.13160965 232.11658968 -458.39193743 229.87315378 -458.65222491 227.62971319 C-459.54239924 219.95772705 -460.43414775 212.28593258 -461.33154869 204.61478806 C-462.05467335 198.43324064 -462.77397076 192.25126141 -463.49007392 186.06889677 C-463.74403743 183.88334896 -463.99958485 181.69798447 -464.25690484 179.5128293 C-464.60042965 176.59460076 -464.93840392 173.67578141 -465.27497864 170.75674438 C-465.37397089 169.92809667 -465.47296315 169.09944896 -465.57495517 168.2456907 C-466.13686499 163.30875395 -466.32140185 158.50836688 -466.234375 153.5390625 C-456.34818018 149.1807569 -446.21194876 145.61472802 -436.02270508 142.04208374 C-430.67923329 140.16816532 -425.3399853 138.28226294 -420 136.3984375 C-418.31571899 135.80478645 -418.31571899 135.80478645 -416.59741211 135.19914246 C-403.96366319 130.74393435 -391.34862415 126.23662175 -378.734375 121.7265625 C-376.36898946 120.88123382 -374.00359226 120.0359378 -371.63818359 119.19067383 C-363.34224871 116.22589443 -355.04677526 113.2598249 -346.75134277 110.29364014 C-338.70430173 107.41632619 -330.65701025 104.5397141 -322.609375 101.6640625 C-321.46576508 101.2553894 -320.32215515 100.84671631 -319.14389038 100.42565918 C-299.79940307 93.51408968 -280.4411856 86.64169779 -261.07926559 79.7791748 C-241.15985345 72.71884214 -221.25540226 65.61794759 -201.36480713 58.47674561 C-186.55891284 53.16113854 -171.74618065 47.8656105 -156.921875 42.6015625 C-142.60665614 37.51795493 -128.29516852 32.42410852 -113.98974609 27.31298828 C-109.2932462 25.63510428 -104.59558071 23.96054516 -99.89697266 22.28857422 C-88.74070082 18.31533967 -77.59508788 14.31704433 -66.47935486 10.23184204 C-61.95772688 8.57028335 -57.43168184 6.92091122 -52.90461063 5.27424812 C-49.81344682 4.14879241 -46.72610801 3.01420227 -43.64291382 1.86706543 C-40.23275067 0.59877524 -36.81488597 -0.64622685 -33.39453125 -1.88671875 C-32.3939267 -2.26582901 -31.39332214 -2.64493927 -30.36239624 -3.03553772 C-19.00575813 -7.09531334 -11.04634951 -4.00473431 0 0 Z " fill="#DD0031" transform="translate(469.234375,11.4609375)"/>
<path d="M0 0 C5.06592184 1.06106554 9.98889484 2.20137824 14.87207031 3.94506836 C15.94371429 4.32480301 17.01535828 4.70453766 18.11947632 5.09577942 C19.26083038 5.50632065 20.40218445 5.91686188 21.578125 6.33984375 C22.79690338 6.77346725 24.01568176 7.20709076 25.27139282 7.65385437 C28.57767575 8.83036396 31.88156291 10.0134679 35.18502045 11.19788361 C38.6755309 12.44808424 42.16823014 13.69214201 45.66064453 14.93701172 C53.45070651 17.71517785 61.23746604 20.50252166 69.02348328 23.29199982 C72.08086627 24.3871728 75.13858892 25.48139644 78.19628906 26.57568359 C89.10026139 30.47861015 100.00198767 34.38776754 110.90234375 38.30078125 C124.40998928 43.14942302 137.92244427 47.98455402 151.4375 52.8125 C152.58769623 53.22339874 153.73789246 53.63429749 154.92294312 54.05764771 C174.32595706 60.98759785 193.7423954 67.87934859 213.1620903 74.76236343 C232.69656266 81.68615976 252.21598294 88.65070121 271.72103882 95.65701294 C289.13964316 101.91276216 306.57607674 108.11708802 324.02106476 114.29875565 C350.73470168 123.76484967 377.42697589 133.28911755 404.09667969 142.87841797 C408.91123097 144.60933602 413.72713946 146.33643887 418.54354858 148.06217957 C421.98670466 149.29644075 425.42900548 150.53307197 428.87103271 151.77047729 C430.43991015 152.33401652 432.00911718 152.89663912 433.57867432 153.45828247 C435.68361411 154.21174707 437.78728092 154.96865705 439.890625 155.7265625 C441.63907715 156.35425537 441.63907715 156.35425537 443.42285156 156.99462891 C446 158 446 158 447 159 C446.97667922 161.37747117 446.87955981 163.70871926 446.72577572 166.07920361 C446.67847079 166.83421766 446.63116585 167.58923172 446.58242744 168.36712499 C445.86948252 178.85738645 444.60120222 189.29123292 443.3875885 199.73274231 C443.11551639 202.1039037 442.84385477 204.47511222 442.57256502 206.84636325 C441.90795297 212.64597975 441.23898175 218.44508144 440.56809364 224.24397502 C439.76376865 231.19838909 438.96496828 238.15343503 438.16627599 245.10849786 C436.51116178 259.51952899 434.84965881 273.92981909 433.18611867 288.33987967 C431.90223708 299.46150234 430.62002731 310.58331662 429.33898735 321.70526695 C429.15468415 323.30531594 428.9703802 324.90536483 428.78607551 326.50541365 C428.50833305 328.91665475 428.23059077 331.32789588 427.95285165 333.73913737 C425.37306557 356.1355997 422.79131775 378.53183519 420.2054987 400.92760181 C420.10814637 401.77077474 420.01079405 402.61394766 419.91049165 403.48267128 C419.41710055 407.75590323 418.92369122 412.02913306 418.43027515 416.30236212 C418.28329122 417.5753175 418.28329122 417.5753175 418.13333793 418.87398916 C417.93518052 420.5901304 417.73702215 422.30627153 417.53886281 424.02241255 C414.45118933 450.76334418 411.37012038 477.50502964 408.29418945 504.24731445 C404.83652903 534.30828189 401.37381524 564.36866106 397.9036817 594.42819136 C397.53404832 597.63023844 397.16443269 600.83228756 396.79482841 604.034338 C396.70382183 604.82273987 396.61281524 605.61114175 396.51905088 606.42343459 C395.14397948 618.33678161 393.77289461 630.25058316 392.40382576 642.16462135 C390.84851263 655.69937485 389.28794742 669.23351065 387.72028334 682.76683942 C386.84272067 690.3440484 385.96938564 697.92171691 385.10204512 705.50010294 C384.45515874 711.14814101 383.80039893 716.7952434 383.14248531 722.44200655 C382.87670229 724.73398009 382.613516 727.02625645 382.35310603 729.31884668 C382.00038215 732.42080635 381.6384386 735.52155145 381.27404881 738.622159 C381.17370188 739.52447713 381.07335496 740.42679527 380.96996722 741.35645637 C380.87112332 742.18100435 380.77227942 743.00555234 380.67044026 743.85508662 C380.58861819 744.56442646 380.50679612 745.2737663 380.42249459 746.00460129 C379.71401318 749.35068647 378.75896469 751.47036664 375.93481445 753.44116211 C375.0862085 753.88210205 374.23760254 754.32304199 373.36328125 754.77734375 C372.40550781 755.28394531 371.44773437 755.79054688 370.4609375 756.3125 C369.42195313 756.84875 368.38296875 757.385 367.3125 757.9375 C365.10964976 759.1009215 362.90785132 760.26633638 360.70703125 761.43359375 C359.58506348 762.02640137 358.4630957 762.61920898 357.30712891 763.22998047 C352.32085238 765.89870222 347.41015036 768.69438267 342.5 771.5 C333.72359604 776.49672438 324.87334883 781.33918097 315.98046875 786.125 C309.10549062 789.83445643 302.28935579 793.63629 295.5 797.5 C286.72262399 802.4950594 277.87339221 807.33915762 268.98046875 812.125 C262.10549062 815.83445643 255.28935579 819.63629 248.5 823.5 C240.71654482 827.92943551 232.88600601 832.25584627 225 836.5 C217.22185717 840.68765235 209.49240349 844.94724339 201.8125 849.3125 C193.20004905 854.20725534 184.55196991 859.03338147 175.875 863.8125 C175.26735809 864.14721313 174.65971619 864.48192627 174.03366089 864.82678223 C170.93302649 866.53439134 167.83188862 868.24108358 164.73046875 869.94726562 C158.60963765 873.31476233 152.49215702 876.68833511 146.375 880.0625 C145.77419617 880.39383942 145.17339233 880.72517883 144.55438232 881.06655884 C134.746278 886.47624108 124.95239045 891.91119422 115.16357422 897.35571289 C106.9518311 901.9210496 98.72841599 906.46481985 90.5 911 C76.6488937 918.63475343 62.82161912 926.31198694 49 934 C41.05325815 938.42006147 33.10505098 942.83745263 25.15332031 947.24853516 C22.07662865 948.95743776 19.00300834 950.67176341 15.9296875 952.38671875 C14.099072 953.40385043 12.2683495 954.42078958 10.4375 955.4375 C9.60420166 955.90446289 8.77090332 956.37142578 7.91235352 956.85253906 C7.15623779 957.27116211 6.40012207 957.68978516 5.62109375 958.12109375 C4.9655249 958.4864624 4.30995605 958.85183105 3.63452148 959.22827148 C2 960 2 960 0 960 C0 838.89 0 717.78 0 593 C39.27 593 78.54 593 119 593 C127.3221875 613.8209375 127.3221875 613.8209375 135.8125 635.0625 C148.66237991 667.23867352 148.66237991 667.23867352 161.62109375 699.37109375 C162.08050858 700.50394302 162.5399234 701.6367923 163.01325989 702.80397034 C165.02616382 707.76373701 167.0443184 712.72129253 169.06958008 717.67602539 C169.74953618 719.34650697 170.42946969 721.01699775 171.109375 722.6875 C171.41068832 723.41952133 171.71200165 724.15154266 172.02244568 724.90574646 C174 729.7739792 174 729.7739792 174 732 C207.99 732 241.98 732 277 732 C272.82361156 721.10099196 272.82361156 721.10099196 268.20703125 710.421875 C267.69217415 709.28585846 267.69217415 709.28585846 267.16691589 708.12689209 C266.4329845 706.50783428 265.69754942 704.88945736 264.96069336 703.27172852 C262.95059825 698.85704165 260.95359539 694.43644432 258.95703125 690.015625 C258.54486359 689.10329102 258.13269592 688.19095703 257.70803833 687.25097656 C253.40014882 677.69871355 249.19579088 668.10189499 245 658.5 C239.08148038 644.96247556 233.08377992 631.46405982 227 618 C220.53073845 603.68282785 214.16948577 589.32205752 207.875 574.92724609 C202.3288458 562.24860278 196.69830201 549.61095571 191 537 C184.53073845 522.68282785 178.16948577 508.32205752 171.875 493.92724609 C166.3288458 481.24860278 160.69830201 468.61095571 155 456 C148.53073845 441.68282785 142.16948577 427.32205752 135.875 412.92724609 C130.3288458 400.24860278 124.69830201 387.61095571 119 375 C112.53073845 360.68282785 106.16948577 346.32205752 99.875 331.92724609 C94.3288458 319.24860278 88.69830201 306.61095571 83 294 C76.53073845 279.68282785 70.16948577 265.32205752 63.875 250.92724609 C58.3288458 238.24860278 52.69830201 225.61095571 47 213 C40.53607138 198.6946302 34.17708645 184.34691659 27.89111328 169.9624939 C23.62303401 160.19832038 19.32045329 150.45151656 14.9375 140.73828125 C14.52185791 139.81711517 14.10621582 138.8959491 13.67797852 137.9468689 C11.67734864 133.51683966 9.67164643 129.08917051 7.66015625 124.6640625 C6.94008801 123.07422607 6.2200351 121.48438269 5.5 119.89453125 C5.17378662 119.18081863 4.84757324 118.46710602 4.51147461 117.73176575 C4.20862549 117.0620726 3.90577637 116.39237946 3.59375 115.70239258 C3.20219727 114.84198112 3.20219727 114.84198112 2.80273438 113.96418762 C2.53783203 113.31600571 2.27292969 112.66782379 2 112 C1.46271774 110.72256676 1.46271774 110.72256676 0.9145813 109.41932678 C-0.33060227 104.76398392 -0.26263183 100.38628959 -0.22705078 95.58837891 C-0.22734283 94.55362427 -0.22763489 93.51886963 -0.22793579 92.45275879 C-0.22654618 89.0439404 -0.2110021 85.63534255 -0.1953125 82.2265625 C-0.19158107 79.85859293 -0.18873471 77.49062181 -0.18673706 75.12265015 C-0.1791109 68.89853634 -0.15947103 62.67451629 -0.1373291 56.45043945 C-0.11684883 50.09587878 -0.10773067 43.74130293 -0.09765625 37.38671875 C-0.07622427 24.92443804 -0.04210051 12.46222682 0 0 Z " fill="#C3002F" transform="translate(450,6)"/>
<path d="M0 0 C0.66 0 1.32 0 2 0 C43.66666667 93.75 85.33333333 187.5 245.85235596 548.66786194 C246.71032776 550.59825785 247.56835987 552.52862697 248.42645264 554.45896912 C250.53148653 559.19459359 252.63553149 563.93065198 254.73730469 568.66772461 C258.35053637 576.80879454 261.96976669 584.94676534 265.63092041 593.06642151 C267.15059658 596.43749407 268.66523171 599.81082048 270.17956543 603.18429565 C270.88623261 604.75431124 271.59557194 606.32312716 272.30773926 607.89065552 C273.27947154 610.02966858 274.24223139 612.17250744 275.203125 614.31640625 C275.74614258 615.51724854 276.28916016 616.71809082 276.84863281 617.95532227 C278 621 278 621 278 625 C244.01 625 210.02 625 175 625 C161.21697139 591.6910142 161.21697139 591.6910142 156.7734375 580.53125 C156.25094259 579.22312158 155.72828201 577.91505932 155.20547485 576.60705566 C153.8596232 573.23872013 152.51582596 569.86956938 151.17260742 566.50018311 C149.86237741 563.21448157 148.55024368 559.92954144 147.23828125 556.64453125 C143.82491382 548.09659653 140.41248263 539.54828798 137 531 C131.06 516.15 125.12 501.3 119 486 C40.79 486 -37.42 486 -118 486 C-132.19 521.64 -146.38 557.28 -161 594 C-173 623 -173 623 -174 625 C-207.99 625 -241.98 625 -277 625 C-276.23047504 620.38285023 -275.62545974 617.70957854 -273.76171875 613.65234375 C-273.28154297 612.5953125 -272.80136719 611.53828125 -272.30664062 610.44921875 C-271.77232422 609.29035156 -271.23800781 608.13148438 -270.6875 606.9375 C-269.81469984 605.02205475 -268.94477066 603.10532138 -268.07498169 601.18850708 C-267.43827286 599.78555246 -266.80077479 598.38295581 -266.16256714 596.98068237 C-262.15147761 588.15865462 -258.23087679 579.29642937 -254.30264282 570.43728638 C-247.90296218 556.00685737 -241.48120433 541.586775 -235.01171875 527.1875 C-229.9774142 515.97183416 -224.98935159 504.73571752 -220 493.5 C-214.02804773 480.0515253 -208.04226582 466.60981998 -202.01171875 453.1875 C-196.9774142 441.97183416 -191.98935159 430.73571752 -187 419.5 C-181.02804773 406.0515253 -175.04226582 392.60981998 -169.01171875 379.1875 C-163.9774142 367.97183416 -158.98935159 356.73571752 -154 345.5 C-148.02804773 332.0515253 -142.04226582 318.60981998 -136.01171875 305.1875 C-130.9774142 293.97183416 -125.98935159 282.73571752 -121 271.5 C-115.02445633 258.04343769 -109.03533171 244.59353176 -103.00073242 231.16333008 C-97.63692855 219.21441248 -92.33005167 207.2402897 -87.01715088 195.26867676 C-80.64698087 180.91789544 -74.22175246 166.59298346 -67.7611084 152.28274536 C-61.72931085 138.91516991 -55.81503659 125.49881201 -49.9418335 112.06091309 C-43.84590457 98.12082385 -37.61234575 84.24737159 -31.31661987 70.39651489 C-24.37644014 55.12151507 -17.58860758 39.78318593 -10.87304688 24.40820312 C-10.16801632 22.79425005 -9.46293985 21.18031703 -8.7578125 19.56640625 C-8.42714783 18.80945465 -8.09648315 18.05250305 -7.75579834 17.27261353 C-5.22518836 11.48997943 -2.64174374 5.73282335 0 0 Z " fill="#FEFEFE" transform="translate(449,113)"/>
<path d="M0 0 C0.66 0 1.32 0 2 0 C11.33858775 22.10189482 20.60479333 44.23231203 29.78181458 66.40177917 C30.13354233 67.25145767 30.48527008 68.10113617 30.84765625 68.9765625 C31.19700729 69.82056107 31.54635834 70.66455963 31.90629578 71.53413391 C35.42356755 80.02858328 38.96054763 88.5147745 42.5 97 C46.40428474 106.36108673 50.30326184 115.72432457 54.1875 125.09375 C54.54195694 125.94875092 54.89641388 126.80375183 55.26161194 127.68466187 C57.05121914 132.0023149 58.83966073 136.32044737 60.62670898 140.63916016 C64.19818397 149.26663982 67.78737195 157.88611583 71.41015625 166.4921875 C72.45841115 168.98761063 73.50633637 171.48317199 74.55419922 173.97875977 C75.22167835 175.56503281 75.89108514 177.15049622 76.5625 178.73510742 C77.48512516 180.91262371 78.40139397 183.09271372 79.31640625 185.2734375 C79.5904982 185.91513885 79.86459015 186.55684021 80.14698792 187.21798706 C81.30832639 190.00112227 82 191.94733964 82 195 C28.54 195 -24.92 195 -80 195 C-79.30361119 191.51805596 -78.72755859 189.02080646 -77.41210938 185.86035156 C-76.9229026 184.67549667 -76.9229026 184.67549667 -76.42381287 183.46670532 C-76.06739212 182.61659882 -75.71097137 181.76649231 -75.34375 180.890625 C-74.96996719 179.98887543 -74.59618439 179.08712585 -74.21107483 178.15805054 C-72.97832881 175.1869025 -71.73917551 172.21847157 -70.5 169.25 C-69.63230183 167.16212497 -68.76503868 165.0740691 -67.89819336 162.98583984 C-66.12306258 158.71128113 -64.34550345 154.43774506 -62.56591797 150.16503906 C-60.25720389 144.62064107 -57.9565378 139.07295308 -55.66015625 133.5234375 C-47.29626868 113.31509513 -38.889807 93.12458185 -30.47241211 72.93847656 C-26.36008057 63.07490691 -22.25373376 53.20892708 -18.1640625 43.3359375 C-17.77764587 42.40315979 -17.39122925 41.47038208 -16.99310303 40.50933838 C-15.17890604 36.12919574 -13.36592967 31.74855278 -11.5546875 27.3671875 C-7.76851941 18.21590196 -3.92917289 9.09091941 0 0 Z " fill="#DC0132" transform="translate(449,317)"/>
<path d="M0 0 C3.18357549 3.18357549 4.47647578 6.05739364 6.08984375 10.13671875 C6.38600586 10.86678635 6.68216797 11.59685394 6.98730469 12.3490448 C7.63460834 13.94676834 8.27849254 15.54588042 8.91940308 17.1461792 C10.69110241 21.56860331 12.48859992 25.98056858 14.28125 30.39453125 C14.6612767 31.33240479 15.04130341 32.27027832 15.43284607 33.23657227 C19.8586808 44.14759187 24.39844167 55.01072178 28.9375 65.875 C30.64502939 69.96593805 32.35185682 74.05716879 34.05859375 78.1484375 C34.47697006 79.15113174 34.89534637 80.15382599 35.32640076 81.18690491 C39.39956652 90.95160466 43.4517153 100.72496448 47.5 110.5 C52.10896232 121.62877251 56.72758432 132.75342658 61.36328125 143.87109375 C61.81730316 144.96003937 62.27132507 146.04898499 62.73910522 147.17092896 C64.9590366 152.49464092 67.18001775 157.81791222 69.40234375 163.140625 C70.21225428 165.08202512 71.0221508 167.02343108 71.83203125 168.96484375 C72.19484695 169.83290146 72.55766266 170.70095917 72.93147278 171.59532166 C73.61826542 173.24229838 74.30215729 174.89048842 74.9828186 176.54000854 C75.69618519 178.26524231 76.41863997 179.98673299 77.14779663 181.70535278 C77.69858383 183.0279158 77.69858383 183.0279158 78.26049805 184.37719727 C78.59413864 185.16836441 78.92777924 185.95953156 79.27153015 186.77467346 C80 189 80 189 80 193 C53.6 193 27.2 193 0 193 C0 129.31 0 65.62 0 0 Z " fill="#C3012F" transform="translate(450,318)"/>
</svg>
