<?xml version="1.0" encoding="UTF-8"?>
<svg version="1.1" xmlns="http://www.w3.org/2000/svg" width="400" height="400">
<path d="M0,0 L400,0 L400,400 L0,400 Z M220,65 L222,69 L225,74 L225,83 L222,89 L222,100 L223,102 L225,102 L226,98 L228,108 L208,101 L191,97 L157,97 L141,100 L125,108 L116,115 L105,126 L95,132 L85,135 L84,136 L74,138 L68,143 L65,150 L65,159 L69,164 L75,168 L78,175 L83,180 L87,182 L88,190 L92,188 L94,185 L95,195 L99,193 L103,187 L103,185 L110,184 L133,184 L143,186 L155,190 L167,196 L177,204 L182,209 L189,217 L197,231 L201,242 L202,252 L196,247 L189,246 L183,257 L179,261 L178,250 L176,250 L172,260 L169,265 L161,265 L153,260 L151,256 L151,249 L152,241 L147,238 L139,238 L132,242 L127,250 L127,264 L134,278 L139,284 L133,284 L131,286 L137,290 L154,295 L173,295 L187,291 L201,284 L211,275 L219,266 L226,252 L230,241 L230,262 L228,272 L223,284 L217,294 L210,302 L202,308 L202,309 L209,309 L215,307 L228,303 L234,301 L226,311 L219,318 L204,329 L195,334 L195,335 L204,335 L218,331 L233,325 L244,319 L256,310 L270,296 L280,282 L278,291 L274,303 L266,319 L266,322 L279,311 L289,300 L298,286 L305,271 L309,258 L310,250 L312,250 L314,279 L318,275 L326,260 L331,247 L334,235 L335,227 L335,196 L329,171 L321,152 L311,135 L300,121 L297,120 L295,131 L289,143 L280,153 L270,159 L259,163 L237,163 L237,161 L246,160 L260,153 L268,146 L274,137 L278,127 L279,122 L279,104 L274,91 L267,82 L260,76 L248,69 L246,69 L244,78 L239,83 L235,85 L236,81 L239,78 L238,72 L232,67 L229,65 Z " fill="#1B1B1B" transform="translate(0,0)"/>
<path d="M0,0 L6,2 L18,10 L26,19 L30,26 L33,35 L33,53 L29,66 L24,74 L17,82 L7,88 L-4,92 L-9,92 L-9,94 L13,94 L26,89 L35,83 L44,73 L50,59 L51,51 L55,53 L65,66 L76,85 L84,105 L89,127 L89,158 L86,175 L82,186 L74,203 L69,210 L68,210 L66,181 L64,181 L63,189 L59,202 L50,221 L41,233 L30,245 L20,253 L20,250 L28,234 L34,216 L34,213 L26,224 L17,234 L8,243 L-7,253 L-22,260 L-35,264 L-42,266 L-51,266 L-46,262 L-35,255 L-24,246 L-17,239 L-12,232 L-26,237 L-36,239 L-37,240 L-44,240 L-39,235 L-33,230 L-25,219 L-19,206 L-17,200 L-16,193 L-16,172 L-23,190 L-30,201 L-42,213 L-56,221 L-69,225 L-73,226 L-92,226 L-109,221 L-115,217 L-113,215 L-107,215 L-115,204 L-119,195 L-119,181 L-113,172 L-107,169 L-99,169 L-94,172 L-95,187 L-92,192 L-85,196 L-77,196 L-71,185 L-70,181 L-68,181 L-67,192 L-61,185 L-57,177 L-50,178 L-44,183 L-45,173 L-50,160 L-57,148 L-66,137 L-79,127 L-93,120 L-105,116 L-113,115 L-136,115 L-143,116 L-145,121 L-149,126 L-151,126 L-152,116 L-156,121 L-158,121 L-159,113 L-167,108 L-170,103 L-171,99 L-179,93 L-181,90 L-181,81 L-177,73 L-170,68 L-162,67 L-154,64 L-144,59 L-134,50 L-127,43 L-114,35 L-105,31 L-89,28 L-55,28 L-34,33 L-18,39 L-19,34 L-19,27 L-14,19 L-4,12 L-1,6 Z " fill="#DD224C" transform="translate(246,69)"/>
<path d="M0,0 L9,0 L17,6 L19,9 L18,14 L8,23 L5,29 L4,36 L2,35 L2,24 L5,18 L5,9 L1,3 Z " fill="#D6224B" transform="translate(220,65)"/>
<path d="M0,0 L2,0 L3,4 L-2,9 L-6,15 L-7,19 L-9,18 L-7,8 Z " fill="#2A1C1F" transform="translate(232,83)"/>
</svg>
