<?xml version="1.0" standalone="no"?>
<!DOCTYPE svg PUBLIC "-//W3C//DTD SVG 20010904//EN"
 "http://www.w3.org/TR/2001/REC-SVG-20010904/DTD/svg10.dtd">
<svg version="1.0" xmlns="http://www.w3.org/2000/svg"
 width="800.000000pt" height="800.000000pt" viewBox="0 0 800.000000 800.000000"
 preserveAspectRatio="xMidYMid meet">

<g transform="translate(0.000000,800.000000) scale(0.100000,-0.100000)"
fill="#000000" stroke="none">
<path d="M0 4000 l0 -4000 4000 0 4000 0 0 4000 0 4000 -4000 0 -4000 0 0
-4000z m4400 3870 c192 -24 312 -47 500 -95 158 -40 390 -118 495 -165 11 -5
76 -34 144 -64 68 -31 185 -90 260 -132 1089 -617 1801 -1703 1927 -2939 21
-214 22 -573 0 -776 -89 -849 -447 -1622 -1037 -2242 -538 -566 -1239 -951
-2015 -1107 -252 -50 -413 -64 -729 -64 -345 0 -507 16 -801 79 -889 190
-1697 708 -2243 1439 -106 142 -244 356 -305 476 -21 41 -42 80 -46 85 -5 6
-38 76 -74 156 -212 474 -319 945 -333 1464 -14 536 73 1028 270 1520 244 611
636 1137 1172 1574 244 198 614 414 925 538 398 160 721 234 1210 277 117 10
522 -4 680 -24z"/>
<path d="M5311 5628 c-14 -17 -60 -76 -103 -132 -44 -55 -88 -112 -99 -126
-11 -14 -30 -38 -42 -54 -12 -16 -81 -105 -153 -197 -128 -162 -222 -287 -274
-360 -45 -65 -344 -474 -350 -479 -3 -3 -16 -22 -30 -42 -14 -21 -30 -40 -37
-42 -12 -5 -162 200 -468 637 l-51 72 -57 3 c-31 2 -57 -1 -57 -6 0 -5 26 -45
57 -88 31 -43 71 -99 88 -124 18 -25 118 -165 223 -312 106 -147 192 -271 192
-276 0 -4 -42 -65 -92 -135 -51 -69 -128 -175 -171 -234 -43 -59 -86 -119 -96
-133 -11 -14 -53 -72 -95 -130 -41 -58 -79 -110 -83 -115 -39 -50 -63 -86 -63
-95 0 -7 20 -10 57 -8 62 3 54 -4 157 143 20 28 65 91 101 140 36 50 127 177
203 282 75 106 142 193 148 193 12 0 50 -51 271 -360 89 -124 190 -263 225
-310 63 -85 63 -85 112 -88 27 -2 52 0 56 5 7 7 -37 73 -255 374 -272 377
-336 471 -331 481 3 7 66 101 140 208 75 107 169 245 211 305 41 61 92 135
113 165 82 119 179 260 247 360 39 58 125 184 192 280 150 219 157 230 147
229 -5 0 -20 -14 -33 -31z"/>
<path d="M995 4898 c-3 -7 -4 -380 -3 -828 l3 -815 48 -3 47 -3 0 323 c0 567
12 1179 24 1175 9 -3 222 -310 394 -567 42 -63 79 -117 82 -120 3 -3 32 -45
66 -95 33 -49 80 -119 105 -155 47 -67 143 -208 314 -460 54 -80 138 -197 186
-260 49 -63 169 -224 269 -357 244 -327 265 -335 54 -22 -124 183 -239 356
-842 1264 -271 407 -521 784 -557 838 l-66 97 -60 0 c-38 0 -61 -4 -64 -12z"/>
<path d="M2376 4888 c-8 -30 -8 -1586 0 -1615 l6 -23 554 0 554 0 0 45 0 45
-505 0 -505 0 2 363 3 362 468 3 468 2 -3 43 -3 42 -467 3 -468 2 0 330 0 330
498 2 497 3 0 40 0 40 -546 3 -547 2 -6 -22z"/>
<path d="M4947 4903 c-4 -3 -7 -24 -7 -45 l0 -38 288 -2 287 -3 5 -780 5 -780
48 -3 47 -3 0 770 c0 423 3 776 6 785 5 14 40 16 291 16 l284 0 -3 43 -3 42
-621 3 c-341 1 -624 -1 -627 -5z"/>
<path d="M6648 3718 c-47 -27 -65 -72 -48 -122 12 -37 42 -56 123 -77 32 -8
54 -20 65 -37 15 -24 15 -25 -12 -48 -15 -13 -38 -24 -52 -24 -29 0 -84 26
-84 40 0 11 -43 14 -53 4 -11 -12 17 -55 48 -74 21 -13 50 -20 81 -20 138 0
191 146 72 200 -24 11 -51 20 -61 20 -10 0 -32 7 -48 16 -24 12 -30 21 -27 42
6 52 112 61 139 11 11 -21 34 -25 44 -8 16 24 -6 61 -48 79 -55 25 -93 25
-139 -2z"/>
<path d="M6462 3718 c-8 -8 -12 -54 -12 -143 0 -89 -4 -135 -12 -143 -19 -19
-63 -14 -83 8 -18 20 -65 28 -65 10 0 -23 24 -58 50 -73 55 -33 135 -12 159
40 15 34 14 286 -1 301 -7 7 -15 12 -18 12 -3 0 -11 -5 -18 -12z"/>
<path d="M6173 3433 c-18 -7 -16 -48 2 -63 13 -10 19 -10 35 5 24 22 25 29 4
49 -16 17 -21 18 -41 9z"/>
</g>
</svg>
