<?xml version="1.0" standalone="no"?>
<!DOCTYPE svg PUBLIC "-//W3C//DTD SVG 20010904//EN"
 "http://www.w3.org/TR/2001/REC-SVG-20010904/DTD/svg10.dtd">
<svg version="1.0" xmlns="http://www.w3.org/2000/svg"
 width="300.000000pt" height="256.000000pt" viewBox="0 0 300.000000 256.000000"
 preserveAspectRatio="xMidYMid meet">

<g transform="translate(0.000000,256.000000) scale(0.100000,-0.100000)"
fill="#000000" stroke="none">
<path d="M0 1280 l0 -1280 1500 0 1500 0 0 1280 0 1280 -1500 0 -1500 0 0
-1280z m1218 855 c72 -34 113 -64 219 -169 l92 -90 82 82 c129 132 244 201
333 202 43 0 53 -4 82 -35 38 -41 50 -92 46 -205 -2 -67 -35 -223 -61 -292 -9
-25 -8 -27 22 -33 163 -33 347 -114 401 -176 44 -52 52 -85 31 -136 -33 -83
-168 -159 -370 -209 -56 -14 -89 -27 -87 -34 1 -7 14 -50 27 -97 62 -214 48
-395 -35 -438 -85 -44 -208 14 -378 179 l-94 92 -67 -69 c-197 -205 -375 -270
-445 -163 -45 70 -42 234 9 408 14 46 25 88 25 93 0 6 -35 18 -78 28 -158 35
-315 111 -360 174 -81 114 9 220 255 304 45 15 107 33 137 39 48 10 55 14 47
28 -15 30 -60 224 -67 293 -9 94 9 170 50 214 29 31 39 35 82 35 31 0 69 -9
102 -25z"/>
<path d="M1077 2088 c-55 -43 -50 -211 15 -408 11 -36 22 -66 23 -68 1 -1 35
2 76 7 41 6 94 12 118 14 25 3 48 11 53 20 4 8 35 52 69 97 l60 82 -58 61
c-129 137 -230 207 -299 207 -22 0 -48 -6 -57 -12z"/>
<path d="M1843 2077 c-98 -51 -285 -234 -266 -260 5 -7 36 -48 68 -92 33 -44
63 -83 68 -86 5 -3 50 -9 100 -13 51 -3 101 -9 113 -12 19 -5 24 5 55 108 29
98 34 127 34 220 0 99 -2 108 -24 132 -31 33 -89 34 -148 3z"/>
<path d="M1483 1718 c-22 -29 -43 -59 -47 -65 -5 -10 16 -13 94 -13 l101 0
-44 62 c-25 34 -50 64 -55 66 -6 2 -28 -21 -49 -50z"/>
<path d="M1378 1563 c-16 -20 -85 -137 -116 -199 l-21 -41 69 -120 c67 -115
72 -121 107 -127 49 -8 158 -8 217 0 l46 7 67 115 c36 63 66 120 66 127 0 6
-31 67 -69 133 l-69 122 -141 0 c-122 0 -143 -2 -156 -17z m219 -99 c51 -25
83 -78 83 -139 0 -118 -115 -187 -220 -133 -55 28 -83 75 -82 134 1 116 115
187 219 138z"/>
<path d="M1229 1566 c-3 -3 -24 -6 -47 -7 -23 -2 -42 -8 -41 -13 0 -6 15 -42
32 -80 l32 -69 48 81 c26 45 47 84 47 87 0 6 -65 7 -71 1z"/>
<path d="M1760 1564 c0 -4 18 -38 40 -76 22 -39 40 -74 40 -79 0 -5 4 -9 9 -9
8 0 75 150 69 155 -8 6 -158 15 -158 9z"/>
<path d="M941 1515 c-158 -41 -268 -103 -292 -163 -23 -60 51 -131 190 -182
70 -26 230 -65 236 -58 1 2 23 51 49 110 l47 106 -24 49 c-13 26 -34 74 -47
106 -26 67 -24 67 -159 32z"/>
<path d="M1960 1488 c-12 -29 -33 -77 -47 -107 l-24 -53 48 -110 c47 -109 47
-109 77 -103 92 19 169 41 238 67 200 79 212 191 29 276 -68 31 -241 82 -281
82 -12 0 -25 -18 -40 -52z"/>
<path d="M1171 1180 c-17 -39 -31 -72 -31 -75 0 -2 15 -6 33 -9 81 -12 127
-15 127 -7 0 9 -89 161 -95 161 -1 0 -16 -32 -34 -70z"/>
<path d="M1799 1167 c-26 -45 -45 -83 -44 -85 4 -4 156 15 161 21 6 5 -57 147
-65 147 -3 -1 -27 -38 -52 -83z"/>
<path d="M1097 994 c-44 -135 -59 -216 -55 -306 3 -84 5 -91 31 -114 64 -55
155 -15 311 138 100 99 107 109 95 127 -8 10 -40 55 -71 98 l-57 80 -73 6
c-40 4 -94 9 -119 13 l-47 6 -15 -48z"/>
<path d="M1803 1026 l-93 -11 -70 -93 c-38 -50 -70 -96 -70 -100 0 -5 42 -49
93 -98 153 -150 244 -198 308 -164 65 36 66 182 2 393 -30 99 -12 92 -170 73z"/>
<path d="M1460 968 c17 -24 39 -54 50 -68 l20 -25 20 25 c11 14 33 44 50 68
l31 42 -101 0 -101 0 31 -42z"/>
</g>
</svg>
